<svg xmlns="http://www.w3.org/2000/svg" viewBox="0 0 800 500">
  <rect width="800" height="500" rx="30" fill="#ecfeff"/>
  <rect x="110" y="90" width="580" height="320" rx="24" fill="#0f172a"/>
  <rect x="135" y="125" width="530" height="240" rx="14" fill="#f8fafc"/>
  <circle cx="165" cy="108" r="8" fill="#f87171"/>
  <circle cx="190" cy="108" r="8" fill="#fbbf24"/>
  <circle cx="215" cy="108" r="8" fill="#34d399"/>
  <rect x="165" y="155" width="180" height="22" rx="8" fill="#14b8a6"/>
  <rect x="165" y="195" width="330" height="14" rx="7" fill="#cbd5e1"/>
  <rect x="165" y="222" width="280" height="14" rx="7" fill="#cbd5e1"/>
  <rect x="165" y="266" width="120" height="52" rx="16" fill="#0f766e"/>
  <rect x="530" y="150" width="100" height="170" rx="18" fill="#ccfbf1"/>
  <circle cx="580" cy="205" r="28" fill="#5eead4"/>
  <rect x="552" y="250" width="56" height="10" rx="5" fill="#0f766e"/>
  <rect x="552" y="270" width="42" height="10" rx="5" fill="#0f766e" opacity=".55"/>
</svg>
